<svg id="svg" version="1.1" xmlns="http://www.w3.org/2000/svg" xmlns:xlink="http://www.w3.org/1999/xlink" width="400" height="399.04306220095697" viewBox="0, 0, 400,399.04306220095697"><g id="svgg"><path id="path0" d="M179.477 97.656 C 179.347 97.993,178.656 98.204,177.681 98.204 C 176.809 98.204,175.984 98.383,175.848 98.603 C 175.713 98.822,175.163 99.002,174.627 99.002 C 174.027 99.002,173.653 99.232,173.653 99.601 C 173.653 99.930,173.381 100.200,173.048 100.200 C 172.456 100.200,172.004 100.379,170.118 101.364 C 169.349 101.766,169.235 101.759,169.494 101.327 C 169.668 101.036,169.130 101.472,168.298 102.295 C 167.467 103.119,166.445 103.792,166.028 103.792 C 165.611 103.792,165.269 104.062,165.269 104.391 C 165.269 104.721,165.043 104.990,164.765 104.990 C 164.488 104.990,163.924 105.439,163.512 105.988 C 163.100 106.537,162.428 106.986,162.020 106.986 C 161.612 106.986,161.322 107.126,161.377 107.296 C 161.473 107.592,161.197 107.936,158.528 110.851 C 157.888 111.550,157.467 112.224,157.591 112.348 C 157.716 112.473,157.583 112.575,157.296 112.575 C 156.640 112.575,155.718 113.762,155.701 114.628 C 155.694 114.989,155.419 115.387,155.090 115.514 C 154.760 115.640,154.491 116.029,154.491 116.378 C 154.491 116.727,154.307 116.899,154.082 116.760 C 153.857 116.621,153.699 116.656,153.730 116.837 C 153.893 117.773,153.636 118.552,153.194 118.463 C 152.890 118.402,152.643 118.901,152.564 119.735 C 152.474 120.684,152.013 121.492,151.067 122.358 C 150.315 123.046,149.701 123.901,149.701 124.256 C 149.701 124.612,149.521 125.014,149.301 125.150 C 149.082 125.285,148.902 125.745,148.902 126.171 C 148.902 126.597,148.671 126.946,148.388 126.946 C 148.106 126.946,147.846 127.321,147.812 127.778 C 147.777 128.236,147.368 128.941,146.902 129.345 C 146.436 129.749,146.067 130.183,146.082 130.309 C 146.195 131.304,146.021 131.737,145.509 131.737 C 145.136 131.737,144.910 132.114,144.910 132.735 C 144.910 133.283,144.731 133.733,144.511 133.733 C 144.291 133.733,144.112 134.092,144.112 134.531 C 144.112 134.970,143.944 135.329,143.739 135.329 C 143.535 135.329,143.252 135.691,143.112 136.134 C 142.972 136.576,142.735 136.863,142.586 136.771 C 142.437 136.680,142.274 137.170,142.224 137.860 C 142.174 138.551,141.949 139.177,141.725 139.252 C 141.501 139.327,141.317 139.662,141.317 139.996 C 141.317 140.380,141.090 140.517,140.703 140.368 C 140.275 140.204,140.123 140.344,140.204 140.825 C 140.268 141.209,140.098 141.473,139.820 141.417 C 139.530 141.359,139.321 141.726,139.321 142.296 C 139.321 142.834,139.007 143.450,138.623 143.665 C 138.239 143.880,137.969 144.158,138.024 144.283 C 138.243 144.784,138.105 145.345,137.807 145.161 C 137.633 145.053,137.462 145.355,137.426 145.830 C 137.390 146.306,137.173 146.757,136.944 146.834 C 136.715 146.910,136.527 147.328,136.527 147.761 C 136.527 148.219,136.348 148.439,136.101 148.287 C 135.866 148.142,135.576 148.400,135.456 148.862 C 135.335 149.323,135.078 149.701,134.884 149.701 C 134.690 149.701,134.531 150.130,134.531 150.656 C 134.531 151.181,134.260 151.715,133.928 151.842 C 133.597 151.970,133.349 152.213,133.377 152.384 C 133.565 153.528,133.252 154.491,132.692 154.491 C 132.286 154.491,132.135 154.711,132.280 155.090 C 132.406 155.419,132.336 155.689,132.123 155.689 C 131.911 155.689,131.737 155.964,131.737 156.300 C 131.737 156.636,131.467 157.015,131.138 157.141 C 130.808 157.267,130.539 157.621,130.539 157.927 C 130.539 158.233,130.359 158.483,130.140 158.483 C 129.920 158.483,129.741 158.840,129.741 159.277 C 129.741 160.115,128.572 161.742,128.155 161.484 C 127.938 161.350,127.787 161.980,127.653 163.573 C 127.630 163.847,127.462 164.072,127.279 164.072 C 127.096 164.072,126.946 164.341,126.946 164.671 C 126.946 165.000,126.677 165.269,126.347 165.269 C 125.991 165.269,125.749 165.636,125.749 166.173 C 125.749 166.670,125.311 167.404,124.777 167.806 C 124.242 168.207,123.891 168.760,123.997 169.034 C 124.102 169.308,123.910 169.763,123.571 170.045 C 123.232 170.326,122.954 170.804,122.954 171.107 C 122.954 171.409,122.774 171.657,122.555 171.657 C 122.335 171.657,122.156 172.111,122.156 172.667 C 122.156 173.223,121.886 173.781,121.557 173.908 C 121.228 174.034,120.958 174.444,120.958 174.818 C 120.958 175.192,120.599 175.884,120.160 176.355 C 119.721 176.826,119.361 177.408,119.361 177.647 C 119.361 177.886,118.912 178.498,118.363 179.007 C 117.814 179.516,117.365 180.326,117.365 180.808 C 117.365 181.290,117.205 181.585,117.009 181.463 C 116.813 181.342,116.540 181.691,116.402 182.238 C 116.265 182.786,115.976 183.234,115.761 183.234 C 115.545 183.234,115.369 183.557,115.369 183.952 C 115.369 184.347,115.147 184.893,114.875 185.165 C 114.603 185.437,114.378 185.920,114.376 186.238 C 114.373 186.557,114.192 186.856,113.972 186.904 C 113.493 187.007,112.575 188.691,112.575 189.467 C 112.575 189.771,112.305 190.020,111.976 190.020 C 111.643 190.020,111.377 190.375,111.377 190.818 C 111.377 191.257,111.198 191.617,110.978 191.617 C 110.758 191.617,110.579 192.066,110.579 192.615 C 110.579 193.164,110.396 193.613,110.173 193.613 C 109.950 193.613,109.456 194.286,109.075 195.110 C 108.695 195.933,108.204 196.825,107.984 197.092 C 107.764 197.359,107.360 197.845,107.086 198.173 C 106.811 198.501,106.587 198.956,106.587 199.185 C 106.587 199.414,106.407 199.601,106.188 199.601 C 105.968 199.601,105.788 199.973,105.788 200.428 C 105.788 200.883,105.517 201.526,105.186 201.857 C 104.855 202.188,104.686 202.626,104.812 202.829 C 104.938 203.033,104.760 203.307,104.417 203.439 C 104.073 203.570,103.792 203.939,103.792 204.258 C 103.792 204.594,103.599 204.718,103.332 204.553 C 103.078 204.396,102.967 204.430,103.085 204.629 C 103.380 205.126,102.678 206.885,102.282 206.640 C 102.106 206.531,101.935 206.805,101.902 207.247 C 101.868 207.689,101.460 208.382,100.994 208.786 C 100.528 209.190,100.159 209.624,100.173 209.750 C 100.287 210.745,100.113 211.178,99.601 211.178 C 99.267 211.178,99.002 211.533,99.002 211.981 C 99.002 212.923,98.360 214.130,97.106 215.545 C 96.612 216.103,96.208 216.975,96.208 217.485 C 96.208 218.000,96.031 218.301,95.808 218.164 C 95.582 218.024,95.409 218.359,95.409 218.939 C 95.409 219.580,95.187 219.960,94.810 219.960 C 94.478 219.960,94.212 220.315,94.212 220.758 C 94.212 221.198,94.032 221.557,93.812 221.557 C 93.593 221.557,93.413 221.832,93.413 222.168 C 93.413 222.504,93.145 222.883,92.817 223.008 C 92.489 223.134,92.320 223.399,92.443 223.598 C 92.565 223.796,92.385 224.066,92.041 224.197 C 91.698 224.329,91.417 224.867,91.417 225.392 C 91.417 225.917,91.238 226.347,91.018 226.347 C 90.798 226.347,90.619 226.715,90.619 227.165 C 90.619 227.614,90.215 228.378,89.721 228.861 C 89.227 229.345,88.764 230.010,88.693 230.339 C 88.621 230.669,88.396 230.998,88.191 231.072 C 87.987 231.146,87.921 231.370,88.045 231.571 C 88.169 231.772,88.120 231.936,87.935 231.936 C 87.643 231.936,87.435 232.856,87.323 234.631 C 87.306 234.905,87.134 235.130,86.942 235.130 C 86.533 235.130,86.772 248.280,87.216 250.200 C 87.381 250.913,87.765 251.497,88.069 251.497 C 88.374 251.497,88.601 251.632,88.575 251.796 C 88.363 253.141,88.733 254.214,89.535 254.579 C 90.395 254.971,91.703 256.044,95.634 259.583 C 97.618 261.369,101.580 263.498,104.833 264.526 C 107.133 265.253,241.583 265.573,244.637 264.858 C 246.130 264.509,246.956 262.093,246.029 260.784 C 245.297 259.750,245.175 259.545,244.389 258.014 C 242.580 254.492,240.564 250.871,239.389 249.035 C 237.272 245.725,235.981 243.479,235.154 241.666 C 234.740 240.761,233.308 238.219,231.972 236.019 C 230.635 233.818,229.541 231.811,229.541 231.560 C 229.541 231.308,229.100 230.660,228.561 230.122 L 227.581 229.142 201.202 229.142 C 177.606 229.142,174.719 229.210,173.840 229.785 C 171.751 231.154,136.072 230.736,134.512 229.324 C 133.364 228.285,133.467 225.554,134.731 223.553 C 135.279 222.683,135.729 221.882,135.729 221.772 C 135.729 221.662,136.327 220.626,137.059 219.469 C 137.791 218.312,139.161 215.928,140.103 214.172 C 141.045 212.415,142.153 210.501,142.565 209.918 C 142.977 209.336,143.313 208.755,143.313 208.629 C 143.313 208.502,143.912 207.452,144.643 206.295 C 145.374 205.138,146.094 203.922,146.243 203.593 C 146.392 203.263,146.897 202.365,147.364 201.597 C 148.142 200.319,149.569 197.816,150.663 195.808 C 150.902 195.369,151.302 194.741,151.552 194.411 C 151.802 194.082,152.488 192.914,153.076 191.816 C 153.664 190.719,154.463 189.281,154.851 188.623 C 155.239 187.964,156.010 186.617,156.565 185.629 C 157.120 184.641,157.956 183.204,158.424 182.435 C 158.892 181.667,159.398 180.768,159.548 180.439 C 159.699 180.110,159.925 179.750,160.051 179.641 C 160.177 179.531,160.475 179.082,160.715 178.643 C 162.924 174.594,163.824 172.994,164.082 172.655 C 164.390 172.251,164.876 171.393,167.253 167.066 C 167.977 165.749,168.706 164.491,168.873 164.271 C 169.177 163.872,169.579 163.164,172.047 158.683 C 172.773 157.365,173.700 155.811,174.108 155.228 C 174.516 154.645,174.850 154.076,174.850 153.963 C 174.850 153.850,175.928 151.932,177.246 149.701 C 178.563 147.469,179.641 145.551,179.641 145.438 C 179.641 145.325,179.975 144.756,180.383 144.173 C 181.156 143.068,183.478 138.975,184.208 137.428 C 184.441 136.936,184.765 136.532,184.930 136.530 C 185.095 136.528,185.230 136.371,185.230 136.181 C 185.230 135.839,188.407 130.127,188.813 129.741 C 189.043 129.521,190.369 127.137,191.477 124.950 C 191.867 124.182,192.417 123.316,192.699 123.025 C 192.982 122.735,193.214 122.241,193.214 121.928 C 193.214 121.614,193.372 121.357,193.566 121.357 C 193.760 121.357,194.018 121.043,194.139 120.659 C 194.360 119.958,196.032 116.942,196.407 116.567 C 196.517 116.457,196.803 116.008,197.042 115.569 C 199.291 111.447,200.221 109.825,200.855 108.920 C 201.263 108.338,201.597 107.679,201.597 107.457 C 201.597 107.234,201.735 106.993,201.904 106.919 C 202.072 106.846,202.573 106.317,203.017 105.742 C 204.349 104.017,208.407 100.643,210.267 99.714 C 213.727 97.986,213.554 97.948,200.697 97.606 C 179.805 97.049,179.709 97.050,179.477 97.656 " stroke="none" fill="#d11c62" fill-rule="evenodd"></path><path id="path1" d="M220.838 149.558 C 220.337 149.773,219.089 151.573,217.609 154.218 C 217.217 154.917,216.303 156.567,215.578 157.884 C 214.852 159.202,213.969 160.729,213.616 161.279 C 212.422 163.138,212.000 163.868,211.309 165.269 C 210.930 166.038,210.521 166.756,210.400 166.866 C 210.069 167.166,209.292 168.473,208.383 170.259 C 207.474 172.046,206.697 173.353,206.366 173.653 C 206.245 173.762,205.796 174.543,205.368 175.388 C 203.911 178.266,203.803 178.443,203.498 178.443 C 203.331 178.443,203.194 178.719,203.194 179.056 C 203.194 179.393,202.925 180.078,202.597 180.579 C 201.811 181.779,201.325 185.230,201.942 185.230 C 202.191 185.230,202.395 185.602,202.395 186.056 C 202.395 186.940,203.259 188.024,203.964 188.024 C 204.199 188.024,204.391 188.473,204.391 189.022 C 204.391 189.571,204.571 190.020,204.790 190.020 C 205.010 190.020,205.190 190.469,205.190 191.018 C 205.190 191.639,205.416 192.016,205.788 192.016 C 206.118 192.016,206.387 192.341,206.387 192.739 C 206.387 193.137,206.747 193.848,207.186 194.319 C 207.625 194.791,207.984 195.543,207.984 195.991 C 207.984 196.450,208.246 196.806,208.583 196.806 C 208.955 196.806,209.182 197.183,209.182 197.804 C 209.182 198.353,209.361 198.802,209.581 198.802 C 209.800 198.802,209.980 199.162,209.980 199.601 C 209.980 200.044,210.246 200.399,210.579 200.399 C 210.908 200.399,211.178 200.669,211.178 200.998 C 211.178 201.327,211.357 201.597,211.577 201.597 C 211.796 201.597,211.976 202.046,211.976 202.595 C 211.976 203.144,212.156 203.593,212.375 203.593 C 212.595 203.593,212.774 203.952,212.774 204.391 C 212.774 204.835,213.041 205.190,213.373 205.190 C 213.703 205.190,213.972 205.459,213.972 205.788 C 213.972 206.118,214.152 206.387,214.371 206.387 C 214.591 206.387,214.770 206.836,214.770 207.385 C 214.770 208.006,214.997 208.383,215.369 208.383 C 215.702 208.383,215.968 208.738,215.968 209.182 C 215.968 209.621,216.148 209.980,216.367 209.980 C 216.587 209.980,216.766 210.364,216.766 210.832 C 216.766 211.301,217.216 212.101,217.764 212.610 C 218.313 213.119,218.762 213.813,218.762 214.153 C 218.762 214.492,218.942 214.770,219.162 214.770 C 219.381 214.770,219.561 215.220,219.561 215.768 C 219.561 216.389,219.787 216.766,220.160 216.766 C 220.517 216.766,220.758 217.134,220.758 217.676 C 220.758 218.177,221.118 218.845,221.557 219.162 C 221.996 219.478,222.355 220.147,222.355 220.647 C 222.355 221.190,222.597 221.557,222.954 221.557 C 223.327 221.557,223.553 221.934,223.553 222.555 C 223.553 223.104,223.733 223.553,223.952 223.553 C 224.172 223.553,224.351 223.887,224.351 224.295 C 224.351 224.704,224.800 225.375,225.349 225.787 C 225.898 226.200,226.353 226.809,226.360 227.141 C 226.378 227.993,227.168 228.873,228.406 229.420 C 229.404 229.861,230.211 231.131,235.845 241.118 C 237.266 243.638,237.941 244.806,240.341 248.902 C 248.578 262.963,248.711 263.350,246.000 265.483 C 244.637 266.555,110.830 266.735,106.706 265.670 C 101.774 264.397,97.549 262.282,95.038 259.829 C 92.782 257.626,91.417 257.043,91.417 258.283 C 91.417 258.723,91.597 259.082,91.816 259.082 C 92.036 259.082,92.216 259.441,92.216 259.880 C 92.216 260.324,92.482 260.679,92.814 260.679 C 93.187 260.679,93.413 261.056,93.413 261.677 C 93.413 262.226,93.593 262.675,93.812 262.675 C 94.032 262.675,94.212 262.944,94.212 263.273 C 94.212 263.603,94.481 263.872,94.810 263.872 C 95.143 263.872,95.409 264.227,95.409 264.671 C 95.409 265.110,95.589 265.469,95.808 265.469 C 96.028 265.469,96.208 265.918,96.208 266.467 C 96.208 267.016,96.387 267.465,96.607 267.465 C 96.826 267.465,97.006 267.735,97.006 268.064 C 97.006 268.393,97.275 268.663,97.605 268.663 C 97.937 268.663,98.204 269.018,98.204 269.461 C 98.204 269.900,98.383 270.259,98.603 270.259 C 98.822 270.259,99.002 270.709,99.002 271.257 C 99.002 271.878,99.228 272.255,99.601 272.255 C 99.958 272.255,100.200 272.623,100.200 273.165 C 100.200 273.666,100.559 274.334,100.998 274.651 C 101.437 274.967,101.796 275.636,101.796 276.136 C 101.796 276.679,102.038 277.046,102.395 277.046 C 102.768 277.046,102.994 277.423,102.994 278.044 C 102.994 278.593,103.174 279.042,103.393 279.042 C 103.613 279.042,103.792 279.461,103.792 279.972 C 103.792 280.556,104.164 281.102,104.790 281.437 C 105.417 281.772,105.788 282.318,105.788 282.902 C 105.788 283.414,105.968 283.832,106.188 283.832 C 106.407 283.832,106.587 284.166,106.587 284.575 C 106.587 284.983,107.036 285.655,107.585 286.067 C 108.134 286.479,108.583 286.966,108.583 287.149 C 108.583 287.625,109.645 288.623,110.151 288.623 C 110.386 288.623,110.579 288.995,110.579 289.450 C 110.579 290.296,111.434 291.417,112.080 291.417 C 112.278 291.417,112.680 291.866,112.974 292.415 C 113.268 292.964,113.850 293.413,114.268 293.413 C 115.095 293.413,116.168 294.299,116.168 294.981 C 116.168 295.217,116.437 295.409,116.766 295.409 C 117.096 295.409,117.365 295.589,117.365 295.808 C 117.365 296.028,117.705 296.208,118.121 296.208 C 118.537 296.208,118.980 296.477,119.106 296.806 C 119.233 297.136,119.701 297.405,120.147 297.405 C 120.593 297.405,120.958 297.585,120.958 297.804 C 120.958 298.024,121.228 298.204,121.557 298.204 C 121.886 298.204,122.156 298.383,122.156 298.603 C 122.156 298.822,122.784 299.002,123.553 299.002 C 124.529 299.002,124.950 299.183,124.950 299.601 C 124.950 299.973,125.327 300.200,125.948 300.200 C 126.497 300.200,126.946 300.379,126.946 300.599 C 126.946 300.818,127.735 300.998,128.700 300.998 C 129.890 300.998,130.527 301.190,130.683 301.597 C 130.849 302.029,131.527 302.196,133.121 302.196 C 134.336 302.196,135.329 302.375,135.329 302.595 C 135.329 302.859,158.882 302.994,205.190 302.994 C 251.497 302.994,275.050 302.859,275.050 302.595 C 275.050 302.375,276.044 302.196,277.258 302.196 C 278.853 302.196,279.530 302.029,279.696 301.597 C 279.822 301.267,280.356 300.998,280.881 300.998 C 281.406 300.998,281.836 300.818,281.836 300.599 C 281.836 300.379,282.285 300.200,282.834 300.200 C 283.455 300.200,283.832 299.973,283.832 299.601 C 283.832 299.268,284.187 299.002,284.631 299.002 C 285.070 299.002,285.429 298.822,285.429 298.603 C 285.429 298.383,285.622 298.204,285.857 298.204 C 286.410 298.204,287.425 297.188,287.425 296.635 C 287.425 296.400,287.618 296.208,287.853 296.208 C 288.406 296.208,289.421 295.192,289.421 294.639 C 289.421 294.404,289.614 294.212,289.849 294.212 C 290.504 294.212,291.417 293.152,291.417 292.391 C 291.417 292.017,291.820 291.361,292.312 290.934 C 293.102 290.250,293.213 289.749,293.260 286.696 C 293.289 284.792,293.603 282.168,293.959 280.866 C 294.489 278.923,294.527 278.063,294.170 276.075 C 293.930 274.743,293.650 273.114,293.547 272.455 C 293.443 271.796,293.211 270.898,293.029 270.459 C 292.416 268.971,290.428 264.871,290.224 264.671 C 290.112 264.561,289.824 264.112,289.585 263.673 C 287.695 260.205,286.879 258.800,286.454 258.283 C 286.184 257.954,285.648 257.056,285.264 256.287 C 283.990 253.737,282.788 251.564,282.356 251.028 C 282.121 250.737,281.450 249.601,280.863 248.503 C 280.277 247.405,279.583 246.158,279.320 245.732 C 279.057 245.306,278.258 244.012,277.545 242.857 C 276.831 241.702,276.248 240.655,276.248 240.530 C 276.248 240.406,275.785 239.571,275.219 238.675 C 274.654 237.779,273.726 236.211,273.158 235.190 C 270.956 231.235,270.670 230.741,269.682 229.176 C 269.121 228.287,268.663 227.459,268.663 227.334 C 268.663 227.209,268.076 226.173,267.359 225.031 C 266.642 223.889,265.699 222.236,265.263 221.357 C 264.828 220.479,264.336 219.701,264.172 219.627 C 264.007 219.554,263.872 219.240,263.872 218.929 C 263.872 218.618,263.738 218.361,263.573 218.359 C 263.408 218.356,262.917 217.593,262.481 216.662 C 262.045 215.731,261.596 214.880,261.483 214.770 C 261.157 214.454,260.361 213.094,259.613 211.577 C 259.234 210.808,258.825 210.090,258.703 209.980 C 258.373 209.680,257.596 208.373,256.687 206.587 C 255.778 204.800,255.001 203.493,254.670 203.194 C 254.549 203.084,254.139 202.365,253.761 201.597 C 253.382 200.828,252.852 199.845,252.584 199.411 C 250.314 195.742,249.501 194.367,249.501 194.196 C 249.501 194.086,249.042 193.269,248.482 192.381 C 247.420 190.700,246.916 189.822,244.723 185.828 C 243.999 184.511,243.271 183.253,243.103 183.034 C 242.936 182.814,242.451 182.006,242.024 181.238 C 239.658 176.972,239.096 175.990,238.224 174.591 C 237.698 173.745,237.138 172.784,236.981 172.455 C 236.824 172.126,236.475 171.497,236.207 171.058 C 233.881 167.256,232.309 164.499,230.858 161.677 C 230.463 160.908,230.028 160.190,229.891 160.080 C 229.755 159.970,229.126 158.892,228.494 157.685 C 227.862 156.477,227.121 155.252,226.846 154.962 C 226.572 154.671,226.347 154.177,226.347 153.864 C 226.347 153.550,226.212 153.293,226.046 153.293 C 225.880 153.293,225.517 152.799,225.239 152.196 C 224.186 149.905,222.451 148.865,220.838 149.558 M90.619 256.487 C 90.619 256.816,90.798 257.086,91.018 257.086 C 91.238 257.086,91.417 256.816,91.417 256.487 C 91.417 256.158,91.238 255.888,91.018 255.888 C 90.798 255.888,90.619 256.158,90.619 256.487 " stroke="none" fill="#0d213a" fill-rule="evenodd"></path><path id="path2" d="M218.363 96.806 C 218.363 97.187,217.980 97.405,217.309 97.405 C 216.730 97.405,216.056 97.639,215.812 97.924 C 215.569 98.209,214.381 98.781,213.174 99.196 C 208.608 100.762,203.569 105.243,200.765 110.230 C 199.978 111.629,198.406 114.372,197.272 116.325 C 196.137 118.277,195.210 119.936,195.210 120.010 C 195.210 120.084,194.581 121.127,193.812 122.328 C 193.044 123.530,192.415 124.592,192.415 124.689 C 192.415 124.786,190.709 127.778,188.623 131.337 C 186.537 134.897,184.830 137.863,184.830 137.930 C 184.830 137.997,182.854 141.416,180.439 145.527 C 178.024 149.638,176.048 153.085,176.048 153.186 C 176.048 153.287,175.713 153.847,175.303 154.429 C 174.893 155.012,173.880 156.747,173.051 158.283 C 172.222 159.820,171.330 161.347,171.068 161.677 C 170.807 162.006,170.288 162.904,169.916 163.673 C 169.544 164.441,169.020 165.419,168.751 165.845 C 166.773 168.988,165.669 170.855,165.669 171.058 C 165.669 171.189,165.082 172.230,164.366 173.372 C 163.649 174.515,162.542 176.437,161.905 177.645 C 161.268 178.852,160.147 180.787,159.415 181.944 C 158.683 183.101,158.084 184.126,158.084 184.221 C 158.084 184.317,157.166 185.975,156.044 187.906 C 154.035 191.363,152.653 193.779,151.253 196.281 C 150.862 196.981,150.083 198.279,149.522 199.168 C 148.962 200.056,148.503 200.872,148.503 200.982 C 148.503 201.092,147.874 202.165,147.106 203.366 C 146.337 204.568,145.709 205.634,145.709 205.737 C 145.709 205.839,144.631 207.749,143.313 209.980 C 141.996 212.211,140.918 214.116,140.918 214.212 C 140.918 214.308,140.459 215.114,139.899 216.002 C 138.826 217.701,138.281 218.653,136.144 222.555 C 135.423 223.872,134.675 225.121,134.482 225.329 C 133.882 225.978,134.096 227.391,134.959 228.489 L 135.786 229.541 154.221 229.528 C 173.859 229.513,174.451 229.455,174.451 227.534 C 174.451 227.249,174.777 227.138,175.249 227.261 C 175.688 227.376,176.165 227.279,176.309 227.047 C 176.463 226.798,176.381 226.741,176.110 226.908 C 175.856 227.065,175.649 227.003,175.649 226.770 C 175.649 226.538,176.053 226.333,176.547 226.316 C 177.041 226.298,177.211 226.190,176.925 226.076 C 176.513 225.911,176.527 225.772,176.993 225.409 C 177.723 224.840,179.242 222.124,179.242 221.388 C 179.242 221.089,179.483 220.751,179.777 220.638 C 180.072 220.525,180.620 219.787,180.994 218.999 C 181.368 218.210,181.856 217.565,182.078 217.565 C 182.300 217.565,182.388 217.412,182.272 217.224 C 182.156 217.037,182.319 216.543,182.635 216.127 C 182.950 215.710,183.214 215.055,183.221 214.671 C 183.228 214.286,183.413 213.972,183.633 213.972 C 183.852 213.972,184.032 213.703,184.032 213.373 C 184.032 213.044,184.198 212.774,184.402 212.774 C 184.828 212.774,186.028 210.519,186.028 209.719 C 186.028 209.423,186.297 209.182,186.627 209.182 C 186.956 209.182,187.226 208.912,187.226 208.583 C 187.226 208.253,187.416 207.984,187.648 207.984 C 187.881 207.984,187.969 207.819,187.844 207.617 C 187.719 207.415,187.889 206.979,188.220 206.648 C 188.551 206.316,188.822 205.692,188.822 205.261 C 188.822 204.830,189.092 204.373,189.421 204.247 C 189.750 204.120,190.020 203.652,190.020 203.206 C 190.020 202.760,190.171 202.395,190.356 202.395 C 190.541 202.395,191.031 201.766,191.445 200.998 C 191.859 200.230,192.336 199.601,192.506 199.601 C 192.676 199.601,192.814 199.152,192.814 198.603 C 192.814 198.054,192.994 197.605,193.214 197.605 C 193.433 197.605,193.613 197.156,193.613 196.607 C 193.613 196.058,193.805 195.609,194.040 195.609 C 194.731 195.609,195.609 194.532,195.609 193.684 C 195.609 193.253,195.878 192.796,196.208 192.670 C 196.537 192.544,196.806 192.075,196.806 191.629 C 196.806 191.183,196.952 190.818,197.131 190.818 C 197.310 190.818,197.702 190.190,198.004 189.421 C 198.306 188.653,198.750 188.024,198.992 188.024 C 199.233 188.024,199.461 187.622,199.498 187.132 C 199.535 186.641,199.753 186.177,199.982 186.100 C 200.212 186.024,200.399 185.682,200.399 185.340 C 200.399 184.998,200.714 184.480,201.098 184.188 C 201.711 183.723,201.718 183.657,201.153 183.645 C 200.282 183.628,200.617 181.925,201.889 179.900 C 202.768 178.502,203.316 177.545,205.697 173.253 C 206.123 172.485,206.609 171.677,206.776 171.457 C 207.035 171.117,207.934 169.517,210.143 165.469 C 210.383 165.030,210.669 164.581,210.778 164.471 C 211.115 164.134,211.920 162.745,212.629 161.277 C 213.000 160.509,213.683 159.341,214.147 158.683 C 214.610 158.024,215.510 156.497,216.146 155.289 C 216.782 154.082,217.408 153.004,217.537 152.894 C 217.666 152.784,218.130 152.003,218.567 151.157 C 219.433 149.481,220.919 148.104,221.863 148.104 C 222.643 148.104,225.150 149.657,225.150 150.140 C 225.150 150.346,225.612 151.248,226.178 152.143 C 226.743 153.039,227.671 154.608,228.240 155.629 C 230.441 159.583,230.727 160.077,231.715 161.643 C 232.276 162.531,232.735 163.355,232.735 163.473 C 232.735 163.592,233.193 164.415,233.754 165.303 C 234.315 166.192,235.093 167.490,235.485 168.190 C 235.876 168.889,236.652 170.269,237.208 171.257 C 237.765 172.246,238.558 173.674,238.971 174.433 C 239.383 175.191,239.906 176.019,240.134 176.272 C 240.361 176.525,240.990 177.611,241.531 178.685 C 242.072 179.760,242.622 180.729,242.754 180.838 C 242.885 180.948,243.488 181.936,244.093 183.034 C 244.698 184.132,245.330 185.210,245.498 185.429 C 245.839 185.876,248.005 189.771,249.272 192.216 C 249.727 193.094,250.295 194.021,250.534 194.275 C 250.773 194.530,251.454 195.698,252.048 196.870 C 253.183 199.115,253.956 200.466,254.295 200.798 C 254.407 200.908,254.852 201.672,255.284 202.495 C 255.716 203.318,256.209 203.992,256.378 203.992 C 256.548 203.992,256.687 204.351,256.687 204.790 C 256.687 205.230,256.827 205.589,256.998 205.589 C 257.170 205.589,257.523 206.083,257.783 206.687 C 258.361 208.028,259.384 209.767,260.579 211.440 C 261.073 212.132,261.477 212.985,261.477 213.335 C 261.477 213.685,261.636 213.972,261.830 213.972 C 262.024 213.972,262.294 214.286,262.432 214.671 C 262.569 215.055,263.213 216.267,263.863 217.365 C 264.513 218.463,265.172 219.631,265.328 219.960 C 265.483 220.289,265.713 220.649,265.839 220.758 C 266.043 220.937,266.745 222.150,268.034 224.551 C 268.270 224.990,268.553 225.439,268.663 225.549 C 268.772 225.659,269.058 226.108,269.298 226.547 C 271.475 230.537,272.414 232.166,272.635 232.335 C 272.779 232.445,273.208 233.164,273.591 233.932 C 274.239 235.236,274.581 235.831,276.634 239.222 C 277.066 239.935,277.790 241.238,278.243 242.116 C 278.696 242.994,279.513 244.431,280.059 245.309 C 280.605 246.188,281.228 247.265,281.443 247.705 C 281.827 248.488,282.189 249.091,283.476 251.096 C 284.022 251.946,285.147 253.942,287.189 257.685 C 287.429 258.124,287.728 258.573,287.853 258.683 C 287.979 258.792,288.197 259.152,288.338 259.481 C 288.479 259.810,289.233 261.158,290.013 262.475 C 290.793 263.792,291.649 265.319,291.915 265.868 C 292.181 266.417,292.492 266.956,292.607 267.066 C 292.999 267.443,293.913 270.060,294.106 271.361 C 294.213 272.077,294.460 272.761,294.655 272.882 C 294.850 273.002,295.010 275.405,295.010 278.221 C 295.010 283.005,295.062 283.354,295.809 283.549 C 296.248 283.664,296.512 283.603,296.396 283.415 C 296.120 282.969,297.446 281.415,297.876 281.681 C 298.056 281.792,298.204 281.424,298.204 280.862 C 298.204 280.300,298.383 279.840,298.603 279.840 C 298.822 279.840,299.002 279.560,299.002 279.218 C 299.002 278.876,299.182 278.707,299.401 278.842 C 299.752 279.059,300.026 277.534,299.825 276.479 C 299.787 276.277,300.035 276.344,300.377 276.628 C 300.912 277.072,300.998 276.999,300.998 276.097 C 300.998 275.521,301.178 275.050,301.397 275.050 C 301.617 275.050,301.796 274.601,301.796 274.052 C 301.796 273.503,301.989 273.054,302.224 273.054 C 302.977 273.054,303.859 271.950,303.290 271.720 C 302.898 271.562,302.899 271.514,303.293 271.489 C 303.568 271.471,303.792 271.188,303.792 270.858 C 303.792 270.529,303.972 270.259,304.192 270.259 C 304.411 270.259,304.591 269.900,304.591 269.461 C 304.591 269.018,304.857 268.663,305.190 268.663 C 305.528 268.663,305.788 268.305,305.788 267.841 C 305.788 267.381,305.969 267.130,306.198 267.272 C 306.423 267.411,306.581 267.376,306.549 267.195 C 306.378 266.208,306.660 265.469,307.209 265.469 C 307.551 265.469,307.729 265.304,307.605 265.102 C 307.480 264.900,307.649 264.464,307.980 264.133 C 308.312 263.801,308.583 263.158,308.583 262.703 C 308.583 262.248,308.762 261.876,308.982 261.876 C 309.202 261.876,309.381 261.427,309.381 260.878 C 309.381 260.257,309.607 259.880,309.980 259.880 C 310.347 259.880,310.579 259.507,310.579 258.916 C 310.579 258.385,310.753 257.891,310.965 257.818 C 311.178 257.745,311.395 257.113,311.447 256.415 C 311.500 255.716,311.685 255.233,311.859 255.341 C 312.033 255.448,312.190 255.391,312.208 255.213 C 312.362 253.705,312.687 252.432,312.999 252.116 C 313.205 251.907,313.373 250.885,313.373 249.844 C 313.373 248.803,313.543 247.846,313.750 247.718 C 314.225 247.425,314.243 236.296,313.770 235.726 C 313.578 235.494,313.378 234.367,313.326 233.221 C 313.273 232.075,313.083 231.138,312.903 231.138 C 312.722 231.138,312.575 230.509,312.575 229.741 C 312.575 228.765,312.394 228.343,311.976 228.343 C 311.558 228.343,311.377 227.922,311.377 226.946 C 311.377 226.178,311.198 225.549,310.978 225.549 C 310.758 225.549,310.579 225.100,310.579 224.551 C 310.579 223.930,310.353 223.553,309.980 223.553 C 309.607 223.553,309.381 223.176,309.381 222.555 C 309.381 222.006,309.202 221.557,308.982 221.557 C 308.762 221.557,308.583 221.259,308.583 220.896 C 308.583 220.532,308.134 219.646,307.585 218.927 C 307.036 218.207,306.587 217.427,306.587 217.192 C 306.587 216.958,306.407 216.766,306.188 216.766 C 305.968 216.766,305.788 216.426,305.788 216.011 C 305.788 215.595,305.519 215.152,305.190 215.025 C 304.860 214.899,304.591 214.431,304.591 213.985 C 304.591 213.539,304.411 213.174,304.192 213.174 C 303.972 213.174,303.792 212.904,303.792 212.575 C 303.792 212.246,303.613 211.976,303.393 211.976 C 303.174 211.976,302.994 211.636,302.994 211.220 C 302.994 210.805,302.725 210.361,302.395 210.235 C 302.066 210.108,301.796 209.655,301.796 209.227 C 301.796 208.800,301.609 208.387,301.379 208.311 C 301.150 208.234,300.932 207.770,300.895 207.280 C 300.858 206.789,300.597 206.387,300.314 206.387 C 300.032 206.387,299.800 206.118,299.800 205.788 C 299.800 205.459,299.621 205.190,299.401 205.190 C 299.182 205.190,299.002 204.830,299.002 204.391 C 299.002 203.952,298.822 203.593,298.603 203.593 C 298.383 203.593,298.204 203.144,298.204 202.595 C 298.204 201.998,297.975 201.597,297.636 201.597 C 297.323 201.597,296.860 200.968,296.607 200.200 C 296.353 199.431,295.928 198.802,295.663 198.802 C 295.397 198.802,295.150 198.401,295.113 197.910 C 295.076 197.419,294.858 196.955,294.629 196.879 C 294.399 196.802,294.212 196.306,294.212 195.775 C 294.212 195.245,294.032 194.810,293.812 194.810 C 293.593 194.810,293.413 194.549,293.413 194.230 C 293.413 193.910,292.964 193.200,292.415 192.651 C 291.866 192.102,291.417 191.286,291.417 190.837 C 291.417 190.387,291.241 190.020,291.026 190.020 C 290.810 190.020,290.522 189.572,290.384 189.025 C 290.247 188.477,289.974 188.129,289.778 188.250 C 289.582 188.371,289.421 188.190,289.421 187.848 C 289.421 187.506,289.242 187.226,289.022 187.226 C 288.802 187.226,288.623 186.776,288.623 186.228 C 288.623 185.607,288.397 185.230,288.024 185.230 C 287.651 185.230,287.425 184.853,287.425 184.232 C 287.425 183.683,287.246 183.234,287.026 183.234 C 286.806 183.234,286.627 182.964,286.627 182.635 C 286.627 182.305,286.447 182.036,286.228 182.036 C 286.008 182.036,285.828 181.761,285.828 181.425 C 285.828 181.088,285.559 180.710,285.230 180.583 C 284.900 180.457,284.631 180.024,284.631 179.622 C 284.631 179.219,284.451 178.778,284.232 178.643 C 284.012 178.507,283.832 178.047,283.832 177.621 C 283.832 177.195,283.563 176.846,283.234 176.846 C 282.904 176.846,282.631 176.532,282.626 176.148 C 282.621 175.763,282.266 175.000,281.836 174.451 C 281.407 173.902,281.052 173.251,281.047 173.003 C 281.042 172.755,280.768 172.329,280.439 172.056 C 280.110 171.783,279.840 171.222,279.840 170.809 C 279.840 170.397,279.661 170.060,279.441 170.060 C 279.222 170.060,279.039 169.746,279.035 169.361 C 279.031 168.977,278.582 168.240,278.037 167.723 C 277.492 167.206,277.046 166.442,277.046 166.026 C 277.046 165.610,276.886 165.269,276.690 165.269 C 276.494 165.269,276.221 164.820,276.084 164.271 C 275.946 163.723,275.657 163.273,275.441 163.273 C 275.226 163.273,275.050 163.004,275.050 162.675 C 275.050 162.345,274.870 162.076,274.651 162.076 C 274.431 162.076,274.251 161.717,274.251 161.277 C 274.251 160.834,273.985 160.479,273.653 160.479 C 273.280 160.479,273.054 160.102,273.054 159.481 C 273.054 158.932,272.874 158.483,272.655 158.483 C 272.435 158.483,272.250 158.169,272.243 157.784 C 272.227 156.922,271.328 155.689,270.714 155.689 C 270.464 155.689,270.259 155.240,270.259 154.691 C 270.259 154.142,270.080 153.693,269.860 153.693 C 269.641 153.693,269.461 153.244,269.461 152.695 C 269.461 152.074,269.235 151.697,268.862 151.697 C 268.533 151.697,268.263 151.371,268.263 150.973 C 268.263 150.576,267.904 149.865,267.465 149.393 C 267.026 148.922,266.667 148.254,266.667 147.908 C 266.667 147.563,266.397 147.177,266.068 147.051 C 265.739 146.924,265.469 146.543,265.469 146.203 C 265.469 145.863,265.020 144.996,264.471 144.276 C 263.922 143.556,263.473 142.776,263.473 142.542 C 263.473 142.307,263.293 142.116,263.074 142.116 C 262.854 142.116,262.675 141.667,262.675 141.118 C 262.675 140.569,262.495 140.120,262.275 140.120 C 262.056 140.120,261.876 139.845,261.876 139.508 C 261.876 139.172,261.607 138.794,261.277 138.667 C 260.948 138.541,260.679 138.187,260.679 137.881 C 260.679 137.576,260.499 137.325,260.279 137.325 C 260.060 137.325,259.880 136.960,259.880 136.514 C 259.880 136.068,259.611 135.600,259.281 135.474 C 258.952 135.347,258.683 134.919,258.683 134.521 C 258.683 134.124,258.519 133.739,258.320 133.666 C 258.121 133.593,257.896 133.174,257.821 132.735 C 257.746 132.295,257.280 131.541,256.786 131.057 C 256.292 130.573,255.888 129.900,255.888 129.560 C 255.888 129.220,255.709 128.942,255.489 128.942 C 255.269 128.942,255.090 128.493,255.090 127.944 C 255.090 127.323,254.864 126.946,254.491 126.946 C 254.134 126.946,253.892 126.579,253.892 126.036 C 253.892 125.536,253.533 124.867,253.094 124.551 C 252.655 124.234,252.295 123.566,252.295 123.066 C 252.295 122.523,252.054 122.156,251.697 122.156 C 251.357 122.156,251.098 121.798,251.098 121.329 C 251.098 120.874,250.873 120.251,250.599 119.945 C 249.414 118.624,249.102 118.173,249.102 117.781 C 249.102 117.552,248.922 117.365,248.703 117.365 C 248.483 117.365,248.303 116.916,248.303 116.367 C 248.303 115.818,248.124 115.369,247.904 115.369 C 247.685 115.369,247.505 115.108,247.505 114.789 C 247.505 114.469,247.056 113.759,246.507 113.210 C 245.958 112.661,245.509 111.929,245.509 111.582 C 245.509 111.236,245.240 110.850,244.910 110.723 C 244.581 110.597,244.311 110.103,244.311 109.626 C 244.311 109.149,243.952 108.500,243.513 108.184 C 243.074 107.867,242.715 107.199,242.715 106.698 C 242.715 106.198,242.522 105.788,242.287 105.788 C 241.734 105.788,240.719 104.773,240.719 104.220 C 240.719 103.985,240.526 103.792,240.291 103.792 C 239.826 103.792,238.723 102.810,238.723 102.395 C 238.723 101.981,237.620 100.998,237.154 100.998 C 236.919 100.998,236.727 100.818,236.727 100.599 C 236.727 100.379,236.277 100.200,235.729 100.200 C 235.108 100.200,234.731 99.973,234.731 99.601 C 234.731 99.268,234.376 99.002,233.932 99.002 C 233.493 99.002,233.134 98.822,233.134 98.603 C 233.134 98.383,232.617 98.204,231.985 98.204 C 231.353 98.204,230.613 97.934,230.339 97.605 C 230.036 97.239,229.161 97.006,228.095 97.006 C 227.134 97.006,226.347 96.826,226.347 96.607 C 226.347 96.367,224.750 96.208,222.355 96.208 C 219.073 96.208,218.363 96.314,218.363 96.806 " stroke="none" fill="#f0bad3" fill-rule="evenodd"></path><path id="path3" d="M185.531 96.488 C 185.807 96.591,185.931 96.839,185.807 97.040 C 185.683 97.241,185.941 97.405,186.380 97.405 C 186.819 97.405,187.295 97.217,187.437 96.987 C 187.609 96.709,187.856 96.701,188.171 96.963 C 188.444 97.189,193.802 97.479,200.708 97.642 C 213.552 97.946,213.730 97.984,210.267 99.714 C 208.407 100.643,204.349 104.017,203.017 105.742 C 202.573 106.317,202.072 106.846,201.904 106.919 C 201.735 106.993,201.597 107.234,201.597 107.457 C 201.597 107.679,201.263 108.338,200.855 108.920 C 200.221 109.825,199.291 111.447,197.042 115.569 C 196.803 116.008,196.517 116.457,196.407 116.567 C 196.032 116.942,194.360 119.958,194.139 120.659 C 194.018 121.043,193.760 121.357,193.566 121.357 C 193.372 121.357,193.214 121.614,193.214 121.928 C 193.214 122.241,192.989 122.735,192.715 123.025 C 192.217 123.551,191.100 125.490,189.766 128.144 C 189.380 128.912,188.960 129.631,188.834 129.741 C 188.437 130.084,185.230 135.816,185.230 136.181 C 185.230 136.371,185.095 136.528,184.930 136.530 C 184.765 136.532,184.441 136.936,184.208 137.428 C 183.478 138.975,181.156 143.068,180.383 144.173 C 179.975 144.756,179.641 145.325,179.641 145.438 C 179.641 145.551,178.563 147.469,177.246 149.701 C 175.928 151.932,174.850 153.850,174.850 153.963 C 174.850 154.076,174.516 154.645,174.108 155.228 C 173.700 155.811,172.773 157.365,172.047 158.683 C 169.579 163.164,169.177 163.872,168.873 164.271 C 168.706 164.491,167.977 165.749,167.253 167.066 C 164.876 171.393,164.390 172.251,164.082 172.655 C 163.824 172.994,162.924 174.594,160.715 178.643 C 160.475 179.082,160.177 179.531,160.051 179.641 C 159.925 179.750,159.699 180.110,159.548 180.439 C 159.398 180.768,158.892 181.667,158.424 182.435 C 157.956 183.204,157.120 184.641,156.565 185.629 C 156.010 186.617,155.239 187.964,154.851 188.623 C 154.463 189.281,153.664 190.719,153.076 191.816 C 152.488 192.914,151.802 194.082,151.552 194.411 C 151.302 194.741,150.902 195.369,150.663 195.808 C 149.569 197.816,148.142 200.319,147.364 201.597 C 146.897 202.365,146.392 203.263,146.243 203.593 C 146.094 203.922,145.374 205.138,144.643 206.295 C 143.912 207.452,143.313 208.502,143.313 208.629 C 143.313 208.755,142.977 209.336,142.565 209.918 C 142.153 210.501,141.045 212.415,140.103 214.172 C 139.161 215.928,137.791 218.312,137.059 219.469 C 136.327 220.626,135.729 221.662,135.729 221.772 C 135.729 221.882,135.279 222.683,134.731 223.553 C 132.223 227.526,133.588 229.898,138.604 230.284 C 155.070 231.550,175.649 230.277,175.649 227.991 C 175.649 227.614,175.864 227.090,176.128 226.826 C 176.500 226.454,176.500 226.347,176.128 226.347 C 175.864 226.347,175.649 226.527,175.649 226.747 C 175.649 226.966,175.379 227.146,175.050 227.146 C 174.721 227.146,174.451 227.341,174.451 227.581 C 174.451 229.449,173.781 229.514,154.221 229.528 L 135.786 229.541 134.959 228.489 C 134.096 227.391,133.882 225.978,134.482 225.329 C 134.675 225.121,135.423 223.872,136.144 222.555 C 138.281 218.653,138.826 217.701,139.899 216.002 C 140.459 215.114,140.918 214.308,140.918 214.212 C 140.918 214.116,141.996 212.211,143.313 209.980 C 144.631 207.749,145.709 205.839,145.709 205.737 C 145.709 205.634,146.337 204.568,147.106 203.366 C 147.874 202.165,148.503 201.092,148.503 200.982 C 148.503 200.872,148.966 200.050,149.531 199.154 C 150.097 198.258,151.024 196.690,151.593 195.669 C 152.793 193.514,153.281 192.662,156.044 187.906 C 157.166 185.975,158.084 184.317,158.084 184.221 C 158.084 184.126,158.683 183.101,159.415 181.944 C 160.147 180.787,161.268 178.852,161.905 177.645 C 162.542 176.437,163.649 174.515,164.366 173.372 C 165.082 172.230,165.669 171.189,165.669 171.058 C 165.669 170.855,166.773 168.988,168.751 165.845 C 169.020 165.419,169.544 164.441,169.916 163.673 C 170.288 162.904,170.807 162.006,171.068 161.677 C 171.330 161.347,172.222 159.820,173.051 158.283 C 173.880 156.747,174.893 155.012,175.303 154.429 C 175.713 153.847,176.048 153.287,176.048 153.186 C 176.048 153.085,178.024 149.638,180.439 145.527 C 182.854 141.416,184.830 137.997,184.830 137.930 C 184.830 137.863,186.537 134.897,188.623 131.337 C 190.709 127.778,192.415 124.786,192.415 124.689 C 192.415 124.592,193.044 123.530,193.812 122.328 C 194.581 121.127,195.210 120.084,195.210 120.010 C 195.210 119.936,196.137 118.277,197.272 116.325 C 198.406 114.372,199.978 111.629,200.765 110.230 C 203.569 105.243,208.608 100.762,213.174 99.196 C 214.381 98.781,215.569 98.209,215.812 97.924 C 216.056 97.639,216.730 97.405,217.309 97.405 C 217.990 97.405,218.363 97.188,218.363 96.793 C 218.363 96.253,216.428 96.189,201.697 96.242 C 192.530 96.275,185.256 96.386,185.531 96.488 M220.082 149.141 L 218.962 150.178 220.114 149.340 C 221.706 148.182,224.750 148.836,224.750 150.337 C 224.750 150.592,225.021 151.025,225.352 151.300 C 225.886 151.743,225.890 151.675,225.383 150.698 C 224.093 148.213,221.809 147.542,220.082 149.141 M225.957 152.306 C 225.962 152.520,226.317 153.144,226.747 153.693 C 227.176 154.242,227.531 154.893,227.536 155.141 C 227.541 155.388,227.832 155.829,228.182 156.120 C 228.623 156.486,228.546 156.162,227.934 155.071 C 226.744 152.950,225.946 151.834,225.957 152.306 M216.839 153.892 C 216.589 154.441,216.450 154.890,216.530 154.890 C 216.609 154.890,216.969 154.441,217.329 153.892 C 217.688 153.343,217.828 152.894,217.638 152.894 C 217.449 152.894,217.089 153.343,216.839 153.892 M213.956 158.905 C 213.478 159.577,213.153 160.192,213.235 160.274 C 213.316 160.355,213.786 159.806,214.280 159.053 C 215.392 157.356,215.141 157.241,213.956 158.905 M233.533 165.354 C 233.533 165.842,235.225 168.501,235.414 168.312 C 235.516 168.209,235.135 167.442,234.566 166.605 C 233.998 165.769,233.533 165.205,233.533 165.354 M209.205 167.116 C 208.735 167.912,208.416 168.629,208.496 168.709 C 208.575 168.788,209.043 168.137,209.535 167.261 C 210.653 165.272,210.367 165.146,209.205 167.116 M206.454 171.923 C 205.947 172.696,205.612 173.410,205.710 173.508 C 205.809 173.606,206.278 173.028,206.753 172.222 C 207.874 170.322,207.650 170.098,206.454 171.923 M240.332 176.905 C 240.325 177.048,240.766 177.946,241.313 178.901 C 241.859 179.857,242.307 180.459,242.309 180.240 C 242.312 179.798,240.352 176.492,240.332 176.905 M201.709 180.140 C 200.822 181.643,200.335 183.633,200.854 183.633 C 201.043 183.633,201.198 183.229,201.199 182.735 C 201.200 182.241,201.569 181.232,202.019 180.494 C 202.469 179.756,202.760 179.074,202.666 178.980 C 202.571 178.885,202.141 179.407,201.709 180.140 M243.205 182.207 C 243.699 182.960,244.155 183.523,244.219 183.459 C 244.418 183.260,242.933 180.844,242.611 180.841 C 242.444 180.839,242.712 181.454,243.205 182.207 M245.325 185.928 C 246.465 187.914,247.106 188.771,247.106 188.309 C 247.106 187.918,244.683 184.032,244.439 184.032 C 244.327 184.032,244.726 184.885,245.325 185.928 M247.950 190.415 C 248.442 191.290,248.910 191.942,248.989 191.862 C 249.161 191.691,247.511 188.822,247.240 188.822 C 247.138 188.822,247.457 189.539,247.950 190.415 M250.790 195.381 C 251.283 196.133,251.740 196.697,251.804 196.632 C 252.003 196.434,250.518 194.017,250.196 194.015 C 250.029 194.013,250.297 194.628,250.790 195.381 M255.550 203.522 C 256.055 204.472,256.530 205.062,256.606 204.834 C 256.682 204.606,256.545 204.188,256.302 203.906 C 256.060 203.624,255.585 203.034,255.247 202.595 C 254.909 202.156,255.045 202.573,255.550 203.522 M257.485 206.915 C 257.485 207.087,257.934 207.889,258.483 208.697 C 259.032 209.504,259.481 210.024,259.481 209.852 C 259.481 209.680,259.032 208.878,258.483 208.070 C 257.934 207.262,257.485 206.742,257.485 206.915 M260.344 211.776 C 261.452 213.792,261.477 213.822,261.475 213.140 C 261.474 212.829,261.021 212.036,260.469 211.377 L 259.465 210.180 260.344 211.776 M267.111 223.548 C 267.604 224.424,268.071 225.076,268.151 224.996 C 268.323 224.824,266.672 221.956,266.402 221.956 C 266.300 221.956,266.619 222.673,267.111 223.548 M269.062 226.967 C 269.062 227.089,269.511 227.849,270.060 228.657 C 271.273 230.442,271.376 230.126,270.220 228.167 C 269.435 226.836,269.062 226.450,269.062 226.967 M271.856 231.685 C 271.856 232.116,273.561 234.756,273.730 234.587 C 273.828 234.489,273.671 233.994,273.381 233.487 C 272.805 232.480,271.856 231.358,271.856 231.685 M274.863 236.947 C 276.048 239.106,276.652 239.908,276.638 239.301 C 276.633 239.093,276.278 238.473,275.848 237.924 C 275.419 237.375,275.064 236.724,275.059 236.476 C 275.054 236.228,274.764 235.789,274.415 235.499 C 274.038 235.186,274.219 235.773,274.863 236.947 M277.457 241.452 C 277.968 242.361,278.444 243.046,278.516 242.975 C 278.724 242.766,277.438 240.362,276.961 240.067 C 276.723 239.920,276.946 240.543,277.457 241.452 M279.294 244.696 C 279.622 245.354,280.047 245.989,280.238 246.107 C 280.428 246.224,280.316 245.782,279.987 245.124 C 279.659 244.466,279.235 243.832,279.044 243.714 C 278.853 243.596,278.966 244.038,279.294 244.696 M282.088 249.486 C 282.417 250.144,282.841 250.779,283.032 250.897 C 283.223 251.015,283.110 250.573,282.782 249.915 C 282.454 249.257,282.029 248.622,281.838 248.504 C 281.648 248.386,281.760 248.828,282.088 249.486 M283.433 251.578 C 283.433 251.875,285.962 256.373,286.809 257.581 C 287.148 258.065,287.425 258.277,287.425 258.053 C 287.425 257.828,287.267 257.474,287.075 257.265 C 286.882 257.057,286.141 255.808,285.429 254.491 C 284.170 252.162,283.433 251.087,283.433 251.578 M287.995 259.780 C 288.847 261.366,290.214 263.325,290.217 262.966 C 290.218 262.797,289.770 261.947,289.222 261.078 C 288.673 260.208,288.224 259.314,288.224 259.090 C 288.224 258.866,288.039 258.683,287.814 258.683 C 287.578 258.683,287.655 259.148,287.995 259.780 M291.063 265.065 C 291.556 265.941,292.037 266.579,292.133 266.484 C 292.325 266.291,290.667 263.473,290.361 263.473 C 290.255 263.473,290.571 264.190,291.063 265.065 M293.028 269.138 C 293.020 269.509,293.174 269.912,293.369 270.033 C 294.047 270.452,294.352 273.287,294.349 279.159 C 294.346 284.086,294.439 285.028,294.910 284.847 C 295.220 284.728,295.639 284.631,295.841 284.631 C 296.043 284.631,296.208 284.361,296.208 284.032 C 296.208 283.703,295.938 283.433,295.609 283.433 C 295.107 283.433,295.010 282.593,295.010 278.267 C 295.010 275.254,294.844 272.998,294.611 272.854 C 294.391 272.719,294.205 272.124,294.197 271.533 C 294.181 270.315,293.052 268.002,293.028 269.138 " stroke="none" fill="#c35f87" fill-rule="evenodd"></path><path id="path4" d="M151.697 120.758 C 151.697 121.088,151.876 121.357,152.096 121.357 C 152.315 121.357,152.495 121.088,152.495 120.758 C 152.495 120.429,152.315 120.160,152.096 120.160 C 151.876 120.160,151.697 120.429,151.697 120.758 M220.477 149.104 C 220.004 149.435,219.095 150.648,218.456 151.799 C 217.816 152.950,216.665 154.970,215.896 156.287 C 212.144 162.720,208.224 169.521,207.304 171.193 C 206.741 172.217,206.144 173.234,205.977 173.453 C 205.663 173.866,205.033 174.978,202.582 179.438 C 201.764 180.926,201.209 182.437,201.294 182.943 C 201.410 183.635,201.551 183.460,201.930 182.153 C 202.198 181.229,202.592 180.365,202.805 180.233 C 203.019 180.101,203.194 179.644,203.194 179.218 C 203.194 178.792,203.331 178.443,203.498 178.443 C 203.803 178.443,203.911 178.266,205.368 175.388 C 205.796 174.543,206.245 173.762,206.366 173.653 C 206.697 173.353,207.474 172.046,208.383 170.259 C 209.292 168.473,210.069 167.166,210.400 166.866 C 210.521 166.756,210.930 166.038,211.309 165.269 C 212.000 163.868,212.422 163.138,213.616 161.279 C 213.969 160.729,214.852 159.202,215.578 157.884 C 220.242 149.416,220.641 148.955,222.820 149.504 C 223.702 149.726,225.549 152.016,225.549 152.889 C 225.549 153.111,225.709 153.293,225.905 153.293 C 226.101 153.293,226.373 153.743,226.511 154.291 C 226.649 154.840,226.938 155.289,227.153 155.289 C 227.709 155.289,227.644 154.964,226.846 153.753 C 225.403 151.559,225.121 151.081,224.910 150.468 C 224.377 148.918,221.852 148.141,220.477 149.104 M227.545 155.825 C 227.545 156.129,229.588 159.819,229.901 160.080 C 230.032 160.190,230.463 160.908,230.858 161.677 C 232.309 164.499,233.881 167.256,236.207 171.058 C 236.475 171.497,236.824 172.126,236.981 172.455 C 237.138 172.784,237.694 173.739,238.216 174.577 C 239.160 176.093,239.588 176.839,241.693 180.639 C 242.301 181.737,242.935 182.814,243.103 183.034 C 243.270 183.253,243.999 184.511,244.723 185.828 C 246.916 189.822,247.420 190.700,248.482 192.381 C 249.042 193.269,249.501 194.086,249.501 194.196 C 249.501 194.367,250.314 195.742,252.584 199.411 C 252.852 199.845,253.382 200.828,253.761 201.597 C 254.139 202.365,254.549 203.084,254.670 203.194 C 255.001 203.493,255.778 204.800,256.687 206.587 C 257.596 208.373,258.373 209.680,258.703 209.980 C 258.825 210.090,259.234 210.808,259.613 211.577 C 260.361 213.094,261.157 214.454,261.483 214.770 C 261.596 214.880,262.045 215.731,262.481 216.662 C 262.917 217.593,263.408 218.356,263.573 218.359 C 263.738 218.361,263.872 218.618,263.872 218.929 C 263.872 219.240,264.007 219.554,264.172 219.627 C 264.336 219.701,264.828 220.479,265.263 221.357 C 265.699 222.236,266.642 223.889,267.359 225.031 C 268.076 226.173,268.663 227.209,268.663 227.334 C 268.663 227.459,269.125 228.294,269.691 229.189 C 270.256 230.085,271.184 231.653,271.752 232.674 C 273.954 236.629,274.240 237.123,275.228 238.689 C 275.789 239.577,276.248 240.406,276.248 240.530 C 276.248 240.655,276.831 241.702,277.545 242.857 C 278.258 244.012,279.057 245.306,279.320 245.732 C 279.583 246.158,280.277 247.405,280.863 248.503 C 281.450 249.601,282.121 250.737,282.356 251.028 C 282.788 251.564,283.990 253.737,285.264 256.287 C 285.648 257.056,286.184 257.954,286.454 258.283 C 286.879 258.800,287.695 260.205,289.585 263.673 C 289.824 264.112,290.112 264.561,290.224 264.671 C 290.433 264.876,292.446 269.035,293.025 270.459 C 293.203 270.898,293.471 271.976,293.620 272.854 C 294.327 277.031,294.562 277.792,294.423 275.449 C 294.129 270.499,293.286 268.561,286.435 257.086 C 285.714 255.878,284.642 253.992,284.053 252.894 C 283.463 251.796,282.541 250.180,282.003 249.301 C 281.465 248.423,280.848 247.345,280.633 246.906 C 280.418 246.467,280.063 245.838,279.844 245.509 C 279.124 244.423,274.651 236.665,274.651 236.502 C 274.651 236.415,274.022 235.360,273.253 234.159 C 272.485 232.957,271.856 231.867,271.856 231.737 C 271.856 231.606,271.228 230.516,270.459 229.314 C 269.691 228.113,269.062 227.059,269.062 226.972 C 269.062 226.884,267.918 224.867,266.520 222.488 C 263.578 217.483,258.650 208.995,257.171 206.387 C 256.611 205.399,255.375 203.274,254.424 201.664 C 253.473 200.054,252.695 198.658,252.695 198.562 C 252.695 198.466,252.236 197.661,251.675 196.772 C 251.114 195.884,250.302 194.528,249.870 193.758 C 249.437 192.988,247.712 189.991,246.035 187.097 C 244.358 184.204,242.385 180.758,241.652 179.441 C 240.918 178.124,240.146 176.776,239.935 176.447 C 239.191 175.280,236.525 170.653,236.370 170.259 C 236.284 170.040,235.905 169.411,235.529 168.862 C 235.152 168.313,234.250 166.786,233.524 165.469 C 231.276 161.387,230.814 160.583,229.762 158.916 C 229.201 158.028,228.743 157.140,228.743 156.943 C 228.743 156.746,228.473 156.361,228.144 156.088 C 227.814 155.814,227.545 155.696,227.545 155.825 M228.561 230.122 C 229.100 230.660,229.541 231.308,229.541 231.560 C 229.541 231.811,230.635 233.818,231.972 236.019 C 233.308 238.219,234.740 240.761,235.154 241.666 C 235.981 243.479,237.272 245.725,239.389 249.035 C 240.564 250.871,242.580 254.492,244.389 258.014 C 245.175 259.545,245.297 259.750,246.029 260.784 C 246.956 262.093,246.130 264.509,244.637 264.858 C 241.583 265.573,107.133 265.253,104.833 264.526 C 101.576 263.496,97.615 261.367,95.639 259.583 C 90.465 254.912,89.106 253.936,89.519 255.190 C 89.609 255.464,90.073 255.746,90.550 255.816 C 91.084 255.895,91.417 256.229,91.417 256.687 C 91.417 257.097,91.747 257.536,92.150 257.664 C 92.553 257.792,93.586 258.539,94.445 259.326 C 97.836 262.427,101.512 264.329,106.706 265.670 C 110.830 266.735,244.637 266.555,246.000 265.483 C 248.711 263.350,248.578 262.963,240.341 248.902 C 237.941 244.806,237.266 243.638,235.845 241.118 C 230.841 232.248,229.396 229.891,228.747 229.544 C 227.558 228.907,227.507 229.067,228.561 230.122 M293.840 281.461 C 293.127 284.672,293.062 288.289,293.713 288.516 C 294.028 288.625,294.212 288.310,294.212 287.658 C 294.212 287.091,294.391 286.627,294.611 286.627 C 294.830 286.627,295.010 286.282,295.010 285.862 C 295.010 285.441,295.235 284.993,295.509 284.867 C 295.783 284.741,295.587 284.744,295.072 284.873 L 294.136 285.108 294.420 282.075 C 294.763 278.416,294.562 278.203,293.840 281.461 " stroke="none" fill="#5c546c" fill-rule="evenodd"></path></g></svg>